<?xml version="1.0" encoding="utf-8"?>
<!-- Generator: Adobe Illustrator 16.0.0, SVG Export Plug-In . SVG Version: 6.00 Build 0)  -->
<!DOCTYPE svg PUBLIC "-//W3C//DTD SVG 1.1//EN" "http://www.w3.org/Graphics/SVG/1.1/DTD/svg11.dtd">
<svg version="1.1" id="Layer_1" xmlns="http://www.w3.org/2000/svg" xmlns:xlink="http://www.w3.org/1999/xlink" x="0px" y="0px"
	 width="557px" height="154px" viewBox="0 0 557 154" enable-background="new 0 0 557 154" xml:space="preserve">
<g>
	<g>
		<path fill-rule="evenodd" clip-rule="evenodd" fill="#2F2B2C" d="M58,74.221c0,0,0.021,0,0.021-0.002
			c-4.032-4.248-7.817-8.767-12.156-12.674c-5.625-5.063-6.516-10.521-2.733-16.883c3.293-5.54,9.113-10.301,14.579-7.352
			c22.965,12.395,19.175,18.273,17.984,18.742c-1.262,0.498-17.578-18.018-25.328-10.636C37.958,57.236,69.06,76.045,74.16,81.025
			c1.562,1.525,2.705,3.421,0.355,5.396c-2.086,1.754-3.458,0.207-4.81-1.061C65.775,81.679,61.898,77.939,58,74.221z"/>
		<path fill-rule="evenodd" clip-rule="evenodd" fill="#2F2B2C" d="M99.41,57.383c1.781-1.776,3.562-3.555,5.336-5.327
			c3.336-3.288,6.427-6.892,10.075-9.8c6.815-5.438,13.417-2.727,17.847,2.943c3.791,4.853,7.174,11.281,0.257,17.038
			c-0.539,0.446-3.754,4.739-4.188,5.292c-3.193,4.08-5.067,9.612-11.223,5.78c-1.844-1.149,6.602-9.106,9.713-12.674
			c3.675-4.214,5.625-8.171,0.669-12.638c-5.092-4.59-8.976-2.269-12.943,1.971c-6.899,7.371-14.065,14.497-21.192,21.651
			c-1.56,1.564-3.28,4.162-5.842,1.939c-3.018-2.613-0.285-4.566,1.442-6.33C92.644,63.881,96.054,60.658,99.41,57.383z"/>
		<path fill-rule="evenodd" clip-rule="evenodd" fill="#2F2B2C" d="M68.327,127.5c-6.669,6.109-13.57,10.318-21.437,2.006
			c-7.196-7.603-6.274-14.738,1.753-21.262c1.796-1.46,7.029-5.202,8.65-6.879c2.371-0.18,4.741-0.358,7.111-0.54
			c-3.469,3.959-10.26,10.338-14.283,13.611c-4.85,3.947-2.269,7.932-0.297,10.955c2.249,3.448,6.585,4.791,10.24,1.389
			c8.386-7.814,16.491-15.926,24.777-23.846c1.875-1.793,3.881-5.404,6.78-2.104c2.494,2.842-1.136,4.5-2.748,6.153
			c-3.089,3.165-6.477,6.038-9.74,9.032"/>
		<path fill-rule="evenodd" clip-rule="evenodd" fill="#2F2B2C" d="M113.904,124.599c4.191,3.509,8.695,5.581,13.369,0.314
			c4.492-5.063,2.125-8.787-1.835-12.625c-7.415-7.184-14.669-14.529-21.985-21.813c-1.684-1.676-3.782-3.516-1.405-5.876
			c2.519-2.504,4.209,0.136,5.812,1.642c3.99,3.753,7.87,7.621,11.793,11.442c1.285,1.315,2.568,2.63,3.852,3.945
			c3.876,4.765,8.802,9.037,11.326,14.436c2.455,5.245-0.639,10.634-5.234,14.143c-3.945,3.011-8.764,5.788-13.502,2.5
			c-5.171-3.586-12.91-8.321-13.522-15.887c-0.08-0.99,0.003-3.163,2.209-1.501"/>
		<path fill-rule="evenodd" clip-rule="evenodd" fill="#2F2B2C" d="M43.074,138.281c-0.565,4.091-2.469,7.029-6.998,7.146
			c-4.105,0.104-6.714-2.183-7.028-6.203c-0.336-4.312,1.987-7.227,6.366-7.572C39.855,131.302,42.115,134.117,43.074,138.281z"/>
		<path fill-rule="evenodd" clip-rule="evenodd" fill="#2F2B2C" d="M45.365,32.583c-1.101,3.62-2.221,7.265-7.063,7.156
			c-4.462-0.099-7.212-2.667-7.261-6.96c-0.049-4.23,2.505-7.081,6.998-7.184C42.552,25.493,44.794,28.157,45.365,32.583z"/>
		<g>
			<path fill-rule="evenodd" clip-rule="evenodd" fill="#0099FF" d="M53.522,101.659c-8.157-0.101-15.846,3.036-21.708-4.419
				c-4.483-5.7-4.943-12.166-1.005-18.298c5.646-8.787,20.872-3.205,27.211-4.723c0,0.002-0.021,0.002-0.021,0.002
				c4.577,4.376,8.023,5.569-6.504,4.983c-5.914-0.236-16.882-0.526-16.796,8.3c0.081,8.468,6.666,7.54,12.284,7.565
				c9.389,0.042,18.778-0.011,28.167,0.027c2.549,0.012,5.775-0.309,5.509,3.529c-0.223,3.23-3.176,2.768-5.499,2.859"/>
			<path fill-rule="evenodd" clip-rule="evenodd" fill="#0099FF" d="M79.134,116.016c0.442,5.315,1.292,10.637,1.216,15.947
				c-0.083,5.842,1.676,10.125,7.956,9.868c5.494-0.223,7.791-3.895,7.589-9.657c-0.353-10.069-0.127-20.161-0.076-30.242
				c0.014-2.511-0.422-5.864,3.156-6.001c4.251-0.159,3.544,3.573,3.565,6.229c0.085,10.545-0.027,21.091,0.054,31.634
				c0.076,9.86-5.727,14.32-14.558,14.203c-8.49-0.112-14.067-4.566-13.9-14.093c0.062-3.488-0.373-8.455-0.584-11.941
				C75.41,119.495,77.273,118.49,79.134,116.016z"/>
			<path fill-rule="evenodd" clip-rule="evenodd" fill="#0099FF" d="M99.41,57.383c-1.37-10.877-1.37-10.877-1.726-16.32
				c-0.337-5.158-1.7-8.598-7.603-8.736c-5.894-0.142-7.984,3.381-8.088,8.385c-0.218,10.311-0.031,20.626-0.172,30.938
				c-0.035,2.557,1.254,6.591-2.812,6.741c-4.159,0.156-3.108-3.854-3.131-6.455c-0.085-10.078,0.372-20.18-0.146-30.23
				c-0.544-10.573,4.78-15.632,14.443-15.542c9.397,0.087,14.52,5.49,14.07,15.435c-0.157,3.473,0.312,6.973,0.5,10.458
				C102.971,53.829,101.19,55.607,99.41,57.383z"/>
			<path fill-rule="evenodd" clip-rule="evenodd" fill="#0099FF" d="M119.653,97.684c0.959-4.412,4.444-2.561,6.898-2.57
				c7.193-0.029,16.869,3.724,16.603-8.012c-0.258-11.341-10.546-7.177-17.072-7.614c-7.942-0.534-15.946-0.104-23.922-0.148
				c-2.336-0.013-5.19,0.172-4.935-3.317c0.211-2.89,2.76-2.679,4.876-2.681c11.497-0.011,22.994,0.064,34.489-0.031
				c9.164-0.077,12.544,5.717,12.795,13.47c0.268,8.178-3.387,14.104-12.515,14.658c-4.443,0.271-8.91,0.14-13.365,0.191
				C122.221,100.314,120.938,99,119.653,97.684z"/>
			<path fill-rule="evenodd" clip-rule="evenodd" fill="#0099FF" d="M165.699,79.791c4.526,0.529,7.605,2.854,7.501,7.587
				c-0.101,4.623-2.952,7.365-7.663,7.286c-4.404-0.073-7.007-2.799-7.126-7.082C158.281,82.91,161.08,80.344,165.699,79.791z"/>
			<path fill-rule="evenodd" clip-rule="evenodd" fill="#0099FF" d="M18.918,84.943c-0.771,4.442-3.218,7.181-8.03,6.866
				c-4.419-0.29-6.88-3.065-6.888-7.33c-0.008-4.749,3.085-7.462,7.594-7.399C16.204,77.14,18.666,80.178,18.918,84.943z"/>
			<path fill-rule="evenodd" clip-rule="evenodd" fill="#0099FF" d="M89.702,4.424c4.33,0.79,7.622,2.7,7.602,7.598
				c-0.019,4.794-2.988,7.417-7.483,7.465c-4.238,0.047-6.919-2.484-7.139-6.977C82.44,7.61,85.434,5.465,89.702,4.424z"/>
		</g>
		<path fill-rule="evenodd" clip-rule="evenodd" fill="#2F2B2C" d="M135.254,137.834c0.433-4.115,3.013-6.494,7.347-6.176
			c3.941,0.286,6.405,2.834,6.333,6.914c-0.078,4.417-2.73,6.892-7.09,6.787C137.451,145.255,135.165,142.685,135.254,137.834z"/>
		<path fill-rule="evenodd" clip-rule="evenodd" fill="#2F2B2C" d="M135.172,33.329c0.195-4.588,2.831-6.59,7.27-6.525
			c4.83,0.069,6.517,3.486,6.506,7.384c-0.011,4.014-2.825,6.505-6.867,6.433C137.684,40.541,135.323,37.888,135.172,33.329z"/>
	</g>
	<g>
		<text transform="matrix(1 0 0 1 179.8213 92.2939)" font-family="'Calibri-Bold'" font-size="67.7143">DataCrowds</text>
		<text transform="matrix(1 0 0 1 184.5229 120.897)" font-family="'Calibri-Light'" font-size="35.497">Where every data matters</text>
	</g>
</g>
</svg>
